<svg xmlns="http://www.w3.org/2000/svg" viewBox="0 0 512 512" role="img" aria-labelledby="title desc">
  <title id="title">maccount logo</title>
  <desc id="desc">A green rounded square with a white m and three connected account nodes.</desc>
  <defs>
    <linearGradient id="bg" x1="96" y1="72" x2="416" y2="440" gradientUnits="userSpaceOnUse">
      <stop offset="0" stop-color="#0ca678"/>
      <stop offset="1" stop-color="#087f5b"/>
    </linearGradient>
    <filter id="shadow" x="-20%" y="-20%" width="140%" height="140%">
      <feDropShadow dx="0" dy="18" stdDeviation="18" flood-color="#063f2e" flood-opacity=".22"/>
    </filter>
  </defs>
  <rect width="512" height="512" rx="112" fill="#f8faf9"/>
  <rect x="56" y="56" width="400" height="400" rx="96" fill="url(#bg)" filter="url(#shadow)"/>
  <path fill="#ffffff" d="M143 321V191h43l5 18c9-14 25-23 45-23 22 0 39 10 48 29 11-18 29-29 53-29 43 0 70 29 70 78v57h-49v-55c0-25-11-39-32-39-20 0-33 15-33 41v53h-49v-55c0-25-11-39-32-39-20 0-34 16-34 42v52h-49Z"/>
  <g fill="none" stroke="#dff7eb" stroke-linecap="round" stroke-width="15" opacity=".95">
    <path d="M183 360h73"/>
    <path d="M256 360h73"/>
  </g>
  <g>
    <circle cx="160" cy="360" r="28" fill="#ffffff"/>
    <circle cx="256" cy="360" r="28" fill="#ffffff"/>
    <circle cx="352" cy="360" r="28" fill="#ffffff"/>
    <circle cx="160" cy="360" r="10" fill="#087f5b"/>
    <circle cx="256" cy="360" r="10" fill="#087f5b"/>
    <circle cx="352" cy="360" r="10" fill="#087f5b"/>
  </g>
</svg>
